<svg version="1.1" xmlns="http://www.w3.org/2000/svg" width="145" height="32" viewBox="0 0 145 32">
<path fill="#000" d="M105.82 9.295v-8.462h6.358v8.462h4.911v5.92h-4.911v7.669c0 2.104 0.833 2.938 2.806 2.938 0.351 0 0.921-0.044 1.666-0.176l-0.010 5.825c-0.876 0.219-1.928 0.377-3.2 0.377-5.087 0-7.619-2.515-7.619-7.777v-14.777z"></path>
<path fill="#000" d="M25.931 0c2.061 0 3.727 1.622 3.727 3.727 0 2.061-1.666 3.683-3.727 3.683s-3.727-1.622-3.727-3.683c0-2.105 1.666-3.727 3.727-3.727z"></path>
<path fill="#000" d="M22.686 9.295h6.533v14.115c0 1.622 0.395 2.324 1.49 2.324 0.395 0 0.658-0.044 0.789-0.088v5.792c-0.57 0.22-1.577 0.351-3.024 0.351-3.858 0-5.788-2.061-5.788-6.226v-16.268z"></path>
<path fill="#000" d="M39.713 31.394l-9.472-22.099h6.621l5.788 14.031 5.744-14.031h6.622l-9.472 22.099h-5.831z"></path>
<path fill="#000" d="M55.607 9.295h6.533v14.115c0 1.622 0.394 2.324 1.49 2.324 0.395 0 0.658-0.044 0.789-0.088v5.792c-0.57 0.22-1.577 0.351-3.025 0.351-3.858 0-5.788-2.061-5.788-6.226v-16.268z"></path>
<path fill="#000" d="M121.864 0c2.061 0 3.727 1.622 3.727 3.727 0 2.061-1.666 3.683-3.727 3.683s-3.727-1.622-3.727-3.683c0-2.105 1.666-3.727 3.727-3.727z"></path>
<path fill="#000" d="M58.851 0c2.061 0 3.727 1.622 3.727 3.727 0 2.061-1.666 3.683-3.727 3.683s-3.727-1.622-3.727-3.683c0-2.105 1.666-3.727 3.727-3.727z"></path>
<path fill="#000" d="M118.62 9.295h6.533v14.115c0 1.622 0.396 2.324 1.49 2.324 0.396 0 0.658-0.044 0.79-0.088v5.792c-0.57 0.22-1.577 0.351-3.025 0.351-3.858 0-5.788-2.061-5.788-6.226v-16.268z"></path>
<path fill="#000" d="M66.203 9.295v-8.462h6.358v8.462h4.911v5.92h-4.911v7.669c0 2.104 0.833 2.938 2.806 2.938 0.351 0 0.921-0.044 1.666-0.176l-0.010 5.825c-0.877 0.219-1.928 0.377-3.2 0.377-5.087 0-7.619-2.515-7.619-7.777v-14.777z"></path>
<path fill="#000" d="M103.676 25.745c-1.183 0-1.622-0.702-1.622-2.455v-14.082h-6.533v2.894c-0.658-1.929-3.246-3.288-6.577-3.288-3.113 0-5.744 1.096-7.849 3.332-2.061 2.192-3.113 4.911-3.113 8.112 0 3.245 1.052 5.963 3.113 8.2 2.105 2.192 4.736 3.288 7.849 3.288 3.464 0 5.875-1.052 7.322-3.201 0.307 0.921 0.965 1.753 1.972 2.411 0.921 0.526 2.148 0.789 3.596 0.789 1.272 0 2.237-0.131 2.938-0.351v-5.737c-0.394 0.044-0.789 0.088-1.096 0.088zM90.128 25.782c-1.579 0-2.893-0.526-3.989-1.579-1.096-1.096-1.623-2.411-1.623-3.946s0.527-2.85 1.623-3.902c1.096-1.096 2.411-1.622 3.989-1.622 1.623 0 2.982 0.526 4.078 1.622 0.6 0.554 1.032 1.184 1.316 1.877v4.056c-0.284 0.698-0.716 1.339-1.316 1.916-1.096 1.053-2.455 1.579-4.078 1.579z"></path>
<path fill="#000" d="M21.287 12.802l-4.101 4.057c-1.439-1.527-3.097-2.268-5.060-2.268-3.184 0-5.627 2.443-5.627 5.758s2.486 5.714 5.627 5.714c1.963 0 3.621-0.742 5.060-2.268l4.1 4.057c-2.486 2.748-5.54 4.1-9.16 4.1-3.402 0-6.281-1.090-8.637-3.316-2.312-2.224-3.49-4.972-3.49-8.288s1.178-6.063 3.49-8.288c2.355-2.224 5.234-3.359 8.637-3.359 3.621 0 6.674 1.352 9.16 4.1z"></path>
<path fill="#000" d="M139.883 18.346c-2.447-0.9-4.285-1.224-5.116-1.582-0.698-0.314-0.915-0.622-0.909-1.193 0.008-0.833 0.802-1.396 2.206-1.383 1.885 0.018 3.282 0.272 4.925 1.093l2.214-4.593c-2.133-1.368-4.567-2-6.913-2.022-2.411-0.023-4.433 0.572-6.112 1.828-1.677 1.212-2.527 2.958-2.548 5.194-0.028 2.937 1.663 4.97 5.029 6.186 0.655 0.225 1.789 0.548 2.973 0.861s3.139 0.749 3.139 1.932c0 1.183-1.113 1.787-3.35 1.767-2.499-0.023-5.97-0.769-6.508-0.864-0.002 0.242 0.005 5.843 0.005 5.843 2.15 0.398 3.932 0.565 6.275 0.587 6.488 0.061 9.762-2.846 9.804-7.362 0.028-2.938-1.487-5.030-5.115-6.292z"></path>
</svg>
