<svg version="1.1" id="Layer_1" xmlns:x="ns_extend;" xmlns:i="ns_ai;" xmlns:graph="ns_graphs;" xmlns="http://www.w3.org/2000/svg" xmlns:xlink="http://www.w3.org/1999/xlink" x="0px" y="0px" viewBox="0 0 752.9 129.9" style="enable-background:new 0 0 752.9 129.9;" xml:space="preserve">
 <style type="text/css">
  .st0{fill:#1D428A;}
	.st1{fill:#F1C400;}
 </style>
 <metadata>
  <sfw xmlns="ns_sfw;">
   <slices>
   </slices>
   <sliceSourceBounds bottomLeftOrigin="true" height="129.9" width="752.9" x="0" y="74.7">
   </sliceSourceBounds>
  </sfw>
 </metadata>
 <g id="Ebene_2">
  <g id="Ebene_1-2">
   <path class="st0" d="M198.4,42.7c0-6.8,3.4-9,8.1-9h2.1c4.9,0,8.3,2.1,8.3,9v43.6c0,15.6,7.9,24.8,21.6,24.8
			c11.2,0,20.1-6.4,24.8-15.9c0,0,0-0.1,0-0.1V42.7c0-6.8,3.4-9,8.1-9h2.1c4.9,0,8.3,2.1,8.3,9v80.5c0,1.4-3,2.6-6.6,2.6
			c-5.6,0-11.5-2.6-11.8-14.3c-6.4,9.2-16.2,15.8-30.1,15.8c-23.9,0-34.8-16.2-34.8-38.7L198.4,42.7z M295.6,116.9
			c0,6.8,3.4,8.8,8.3,8.8h2.1c4.7,0,8.3-2.1,8.3-8.8V85.1c0-20.9,5.8-35.1,20.5-35.1c4.2-0.1,8.2,1.3,11.5,3.9
			c0.4,0.4,5.6-2.4,5.6-9.6c0-7.5-5.5-12-14.8-12c-11.5,0-19,6-22.9,17.1c-0.2-12.8-6.2-15.8-11.6-15.8c-3.8,0-6.8,1.1-6.8,2.6
			V116.9z M399.4,32.3c-28,0-47.5,19.7-47.5,47.4c0,28,19.4,47.7,47.4,47.7c27.8,0,47.4-19.7,47.4-47.4
			C446.6,52.3,427,32.3,399.4,32.3 M399.2,112.2c-17.3,0-30.3-13.9-30.3-32.5s13-32.1,30.3-32.1c17.5,0,30.1,13.7,30.1,32.5
			C429.3,98.5,416.5,112.2,399.2,112.2 M456.8,116.9c0,6.8,3.4,8.8,8.3,8.8h2.1c4.7,0,8.3-2.1,8.3-8.8V64.5
			c4.6-9.8,14.5-16,25.4-15.8c13.2,0,20.9,9.4,20.9,24.6v43.6c0,6.8,3.4,8.8,8.3,8.8h2.1c4.7,0,8.3-2.1,8.3-8.8V71.1
			c0-22.4-11.1-38.7-35-38.7c-12.1-0.2-23.5,5.8-30.1,16c-0.6-11.8-6.2-14.7-11.6-14.7c-3.8,0-6.8,1.2-6.8,2.6V116.9z M553.2,10.5
			c0,6.6,4.1,10.3,11.1,10.3c7.1,0,11.1-3.6,11.1-10.3S571.5,0,564.5,0C557.4,0,553.2,3.8,553.2,10.5 M554.9,116.9
			c0,6.8,3.6,8.8,8.5,8.8h1.9c4.9,0,8.3-2.1,8.3-8.8V42.7c0-7-3.4-9-8.3-9h-1.9c-4.9,0-8.5,2.2-8.5,9V116.9z M632,32.3
			c-27.1,0-47,19.9-47,47.4c0,27.8,19.7,47.7,47,47.7c26.7,0,38.7-16.5,38.7-24.8c0-8.1-10.5-9.4-11.1-8.4
			c-4.1,10-12,17.7-27.2,17.7c-17.1,0-29.7-13.5-29.7-32.1c0-18.4,12.8-31.8,29.7-31.8c15.4,0,23.1,7.7,27.2,17.7
			c0.6,0.9,11.1-0.6,11.1-8.3C670.7,48.9,658.9,32.3,632,32.3 M684.4,99.6c-1-0.1-7.2,2.9-7.2,8.5c0,8.7,13,19.2,38.2,19.2
			c23.3,0,37.6-11.1,37.6-28.4c0-19.5-19.4-23.7-33.3-26.7c-14.7-3.2-22.5-5.1-22.5-13.3c0-7.5,6.8-12.4,19.5-12.4
			c10.3-0.2,20.1,4.6,26.4,12.7c0,0,0.1,0.1,0.1,0.1c0.8,0.3,7.5-3,7.5-8.7c0-8.5-11.7-18.2-34.8-18.2c-22,0-36.1,11.5-36.1,28.4
			c0,19.2,18.4,23.3,31.8,26.1c14.8,3.2,23.3,4.9,23.3,14.1c0,7.5-7.1,12.2-19.9,12.2c-14.2,0-24.3-5.8-30.4-13.4
			C684.5,99.6,684.4,99.6,684.4,99.6 M179.3,78.4c9-3,8.9-7.2,7.9-11.8c-2.8-14.8-14.8-34.3-41.4-34.3S99.5,52.8,99.5,80.2
			c0,28.2,19.2,47.2,47.7,47.2c24.6,0,38.5-12.6,38.5-20.5c0-7.2-7.7-9.2-9.4-9.2c-0.2,0-0.4,0.1-0.5,0.3
			c-4.7,8-12.6,14.8-28.2,14.8c-17,0-29.3-11.1-30.8-27.6l0,0c-0.4-4.3-0.4-8.7,0.2-13c2.2-15,13.7-25.8,28.6-25.8
			c13.2,0,22.2,7.9,24.8,20.4c0,0.2-0.1,0.5-0.3,0.6c-15.2,7-43.2,6.6-45.7,6.5c-0.1,0-0.2,0.1-0.2,0.2c-0.6,3.8-0.6,7.6,0,11.4
			c0,0.1,0.1,0.2,0.3,0.2C143,86.8,161.7,84.3,179.3,78.4">
   </path>
   <path class="st1" d="M64.6,93c-0.2-3.3,4.1-4.1,4.5-0.2c1,8.4,3.1,30.2,3.3,33.2c0.3,3.7-3.4,5.4-6.4,2.3
			c-0.7-0.8-19.8-20.5-21.2-22s-2.2-1.6-4-1c-0.8,0.3-20.6,7.7-29.7,11.1c-6.4,2.4-9.2-1.9-6.1-6.5c4.6-6.7,17.6-24.7,18-25.3
			c1.1-1.7,1-2.7-0.9-5C20.8,78,8.4,64.9,5.8,61.8c-2.1-2.6-6.5-6.1-5.7-9.8c0.6-2.9,3.2-4.1,5.9-3.6c3.5,0.6,25,7.4,31.2,8.6
			c1.3,0.2,2.1-1.3,4.2-4.6c6.7-10.5,12.5-19,15.2-22.6c3.7-4.9,8.8-3.5,9.3,2.7c0.6,8,2,23.8,2.8,30.9c0.2,2,1,3.3,2.7,3.9
			c5.1,1.8,8.6,3.3,21.2,5.2c0.2,0,0.3,0.2,0.3,0.4c-0.6,3.2-0.7,6.5-0.5,9.8c0,0.2-0.1,0.3-0.3,0.3c0,0-0.1,0-0.1,0
			c-6.7-1.2-20.5-3.8-28.9-8.2c-2.1-1.1-3.6-3.2-4.1-5.5c-0.4-2-1.2-17.7-1.5-23.4C54,51.3,46,63.8,45.5,64.5
			c-1.2,1.8-4.3,3.8-8.6,2.5c-2.1-0.6-15.3-4.5-19.4-5.7c3,3.9,12.8,14.4,14,15.9c1.5,1.8,2.8,3.8,2.6,5.7s-1.8,3.7-2.9,5.3
			c-1.4,2.1-11.4,14-14,17.9c5-1.8,21-8.2,23.4-9.1c3.5-1.2,5.8-0.3,7.3,1.6c4,4.8,14.8,16,17.6,19.8L64.6,93">
   </path>
  </g>
 </g>
</svg>