<svg version="1.1" id="Layer_1" xmlns:x="ns_extend;" xmlns:i="ns_ai;" xmlns:graph="ns_graphs;" xmlns="http://www.w3.org/2000/svg" xmlns:xlink="http://www.w3.org/1999/xlink" x="0px" y="0px" viewBox="0 0 55.7 44" style="enable-background:new 0 0 55.7 44;" xml:space="preserve">
 <style type="text/css">
  .st0{fill:#FF5533;}
 </style>
 <metadata>
  <sfw xmlns="ns_sfw;">
   <slices>
   </slices>
   <sliceSourceBounds bottomLeftOrigin="true" height="44" width="55.7" x="0.2" y="9.9">
   </sliceSourceBounds>
  </sfw>
 </metadata>
 <g>
  <path class="st0" d="M14.3,18.3c-0.9,0-1.5,0.7-1.5,1.5s0.7,1.5,1.5,1.5c0.9,0,1.5-0.7,1.5-1.5S15.2,18.3,14.3,18.3z M23.1,10.7
		h-5.4V8.1h4.9V5.5h-4.9V2.9H23V0.3h-8.3v13.1h8.4V10.7z M17,18.6c0.9,0,1.5-0.7,1.5-1.5s-0.7-1.5-1.5-1.5c-0.9,0-1.5,0.7-1.5,1.5
		S16.2,18.6,17,18.6z M5.6,13.6c1.9,0,3.6-1,4.6-2.5v2.2h2.6V6.1H5.8v2.5h2.9C8.5,9.9,7.3,11,5.8,11C4.2,11,3,9.7,3,7.8V5.9
		C3,4,4.3,2.7,6.3,2.7c1.5,0,2.8,0.8,3.3,2l2.7-0.9C11.5,1.4,9.1,0,6.3,0C2.7,0,0.1,2.4,0.1,5.9v1.9C0.1,11.1,2.6,13.6,5.6,13.6z
		 M30.8,3.9h-2.9v4.2h2.9C30.8,8.1,30.8,3.9,30.8,3.9z M34.3,0.3h-9.9v2.6h9.9V0.3z M4.9,28.5h2.9v-5l4.9-8.1H9.5l-3.1,5.4l-3.1-5.4
		H0l4.9,8.2V28.5z M30.8,9.2h-2.9v4.2h2.9C30.8,13.3,30.8,9.2,30.8,9.2z M53.2,28.5l-3.6-5c1.7-0.5,3-2.1,3-3.9c0-2.4-2-4.2-4.4-4.2
		h-1.7v2.7H48c0.9,0,1.5,0.7,1.5,1.6c0,0.9-0.7,1.6-1.5,1.6h-1.6v2.5l3.2,4.8H53.2z M38.6,30.6h-4.3v13.1h4.3c4,0,6.9-2.8,6.9-6.5
		C45.5,33.4,42.6,30.6,38.6,30.6z M38.8,41.1h-1.6v-7.8h1.6c2.2,0,3.7,1.7,3.7,3.9C42.5,39.4,41,41.1,38.8,41.1z M50.2,38.5h4.9
		v-2.6h-4.9v-2.6h5.4v-2.6h-8.3v13.1h8.4v-2.6h-5.4V38.5z M45.5,24.1L44,22l1.5-2.2L44,17.6l1.5-2.2l-3,0L41,17.7l1.5,2.2L41,22
		l1.5,2.2L41,26.3l1.6,2.2h3.1L44,26.3L45.5,24.1z M38.8,23.5v-8h-2.9v8c0,1.5-1.1,2.6-2.5,2.6c-1.5,0-2.5-1.1-2.5-2.6v-8h-2.9v8
		c0,3.1,2.3,5.4,5.5,5.4S38.8,26.5,38.8,23.5z M22.8,38.7c0,1.5-1.1,2.6-2.5,2.6c-1.5,0-2.5-1.1-2.5-2.6v-8h-2.9v8
		c0,3.1,2.3,5.4,5.5,5.4c3.2,0,5.5-2.3,5.5-5.4v-8h-2.9V38.7z M5.8,39h2.9c-0.3,1.3-1.5,2.4-2.9,2.4c-1.6,0-2.9-1.3-2.9-3.2v-1.9
		C3,34.4,4.3,33,6.3,33c1.5,0,2.8,0.8,3.3,2l2.7-1c-0.8-2.3-3.2-3.7-6-3.7c-3.5,0-6.2,2.4-6.2,5.9v1.9c0,3.4,2.5,5.8,5.5,5.8
		c1.9,0,3.6-1,4.6-2.5v2.2h2.6v-7.3H5.8C5.8,36.5,5.8,39,5.8,39z">
  </path>
  <path class="st0" d="M19.2,15.2v2.8c2.2,0,3.9,1.8,3.9,4s-1.7,4-3.9,4c-2.1,0-3.9-1.8-3.9-4h-3c0,3.8,3,6.8,6.9,6.8
		c3.8,0,6.9-3,6.9-6.8C26.1,18.2,23.1,15.2,19.2,15.2z M31.3,36.8c0.4-0.4,1.2-1,1.2-2.2c0-1.2-0.7-1.9-1.2-2.2c0,0,0,0-0.1,0
		C31,32,31,31.7,31,31.6v-0.9H28v1.2h0c0,0,0,0,0,0c0,1.2,0.7,1.9,1.2,2.2c0.3,0.3,0.3,0.3,0.3,0.4c0,0.1,0,0.1-0.3,0.4
		c-0.4,0.4-1.1,1-1.2,2.1h0c0,0,0,0,0,0.1c0,0,0,0,0,0c0,0,0,0,0,0c0,0,0,0,0,0.1h0c0.1,1.1,0.7,1.7,1.2,2.1
		c0.3,0.3,0.3,0.3,0.3,0.4c0,0.1,0,0.1-0.3,0.4c-0.4,0.4-1.2,1-1.2,2.2c0,0,0,0,0,0h0v1.2H31v-0.9c0-0.2,0-0.5,0.3-0.7
		c0,0,0,0,0.1,0c0.4-0.4,1.2-1,1.2-2.2c0-1.2-0.7-1.9-1.2-2.2C31,37.3,31,37.3,31,37.2C31,37.1,31,37.1,31.3,36.8z">
  </path>
 </g>
</svg>