<svg version="1.1" id="Layer_1" xmlns:x="ns_extend;" xmlns:i="ns_ai;" xmlns:graph="ns_graphs;" xmlns="http://www.w3.org/2000/svg" xmlns:xlink="http://www.w3.org/1999/xlink" x="0px" y="0px" viewBox="0 0 241.5 68" style="enable-background:new 0 0 241.5 68;" xml:space="preserve">
 <style type="text/css">
  .st0{fill:#132968;}
	.st1{fill:#F96B6B;}
 </style>
 <metadata>
  <sfw xmlns="ns_sfw;">
   <slices>
   </slices>
   <sliceSourceBounds bottomLeftOrigin="true" height="68" width="241.5" x="80.1" y="-234.3">
   </sliceSourceBounds>
  </sfw>
 </metadata>
 <g>
  <path class="st0" d="M178.6,15.4H164c-0.4,0-0.8,0.4-0.8,0.8v49.7c0,0.4,0.4,0.8,0.8,0.8h14.6c0.4,0,0.8-0.4,0.8-0.8V16.2
		C179.4,15.8,179.1,15.4,178.6,15.4 M213.1,53.3c-7.8,0-11.9-5.8-11.9-12.3c0-6.6,4.1-12.3,11.9-12.3c7.8,0,12,5.6,12,12.3
		C225.1,47.5,220.9,53.3,213.1,53.3 M213.1,14.1c-16.4,0-28.3,11.3-28.3,27s11.9,27,28.3,27c16.7,0,28.4-11.1,28.4-27
		S229.9,14.1,213.1,14.1 M156.5,36.2c0-12.8-9.8-22.2-23.3-22.2c-6.2,0-11.6,2.9-14.3,5.8c-0.4,0.4-1.1,0.5-1.5,0.1c0,0,0,0-0.1-0.1
		c-2.7-2.9-8-5.8-14.4-5.8c-13.4,0-23.2,9.3-23.2,22.2v29.6c0,0.4,0.4,0.8,0.8,0.8h14.7c0.4,0,0.8-0.4,0.8-0.8v-29
		c0-3.8,2.4-7.6,6.9-7.6c4.6,0,7.1,3.8,7.1,7.6v29c0,0.4,0.4,0.8,0.8,0.8h14.7c0.4,0,0.8-0.4,0.8-0.8v-29c0-3.8,2.4-7.6,6.9-7.6
		c4.6,0,7.1,3.8,7.1,7.6v29c0,0.4,0.4,0.8,0.8,0.8h14.6c0.4,0,0.8-0.4,0.8-0.8L156.5,36.2z M46.8,53.3c-7.8,0-12-5.8-12-12.3
		c0-6.6,4.2-12.3,12-12.3S58.7,34.4,58.7,41C58.7,47.5,54.6,53.3,46.8,53.3 M46.8,14.1c-16.7,0-28.4,11.1-28.4,27s11.7,27,28.4,27
		c16.4,0,28.3-11.3,28.3-27S63.2,14.1,46.8,14.1">
  </path>
  <path class="st1" d="M12.1,0c6.1-0.1,11.2,4.6,11.7,10.7C24.3,17.2,19.5,23,13,23.5c-0.4,0-0.7,0-1.1,0C5.8,23.6,0.6,18.9,0,12.8
		C-0.5,6.2,4.3,0.6,11,0C11.3,0,11.7,0,12.1,0">
  </path>
 </g>
</svg>